HIERARCHY
ROOT hip
{
	OFFSET 0.000000 0.000000 0.000000 
	CHANNELS 6 Xposition Yposition Zposition Xrotation Zrotation Yrotation
	JOINT abdomen
	{
		OFFSET 0.000000 3.402643 0.000000 
		CHANNELS 3 Xrotation Zrotation Yrotation
		JOINT chest
		{
			OFFSET 0.000000 8.438565 -0.680529 
			CHANNELS 3 Xrotation Zrotation Yrotation
			JOINT neck
			{
				OFFSET 0.000000 10.207942 -0.272212 
				CHANNELS 3 Xrotation Zrotation Yrotation
				JOINT head
				{
					OFFSET 0.000000 3.130431 0.000000 
					CHANNELS 3 Xrotation Zrotation Yrotation
					End Site
					{
						OFFSET 0.000000 3.130435 0.000000 
					}
				}
			}
			JOINT lCollar
			{
				OFFSET 3.470700 6.669187 -0.816635 
				CHANNELS 3 Yrotation Zrotation Xrotation
				JOINT lShldr
				{
					OFFSET 3.198488 0.000000 0.000000 
					CHANNELS 3 Zrotation Yrotation Xrotation
					JOINT lForeArm
					{
						OFFSET 10.139888 0.000000 0.000000 
						CHANNELS 3 Yrotation Zrotation Xrotation
						JOINT lHand
						{
							OFFSET 8.370511 0.000000 0.000000 
							CHANNELS 3 Zrotation Yrotation Xrotation
							End Site
							{
								OFFSET 4.083176 0.000000 0.000000 
							}
						}
					}
				}
			}
			JOINT rCollar
			{
				OFFSET -3.470700 6.669187 -0.816635 
				CHANNELS 3 Yrotation Zrotation Xrotation
				JOINT rShldr
				{
					OFFSET -3.198488 0.000000 0.000000 
					CHANNELS 3 Zrotation Yrotation Xrotation
					JOINT rForeArm
					{
						OFFSET -10.139888 0.000000 0.000000 
						CHANNELS 3 Yrotation Zrotation Xrotation
						JOINT rHand
						{
							OFFSET -8.370511 0.000000 0.000000 
							CHANNELS 3 Zrotation Yrotation Xrotation
							End Site
							{
								OFFSET -4.083176 0.000000 0.000000 
							}
						}
					}
				}
			}
		}
	}
	JOINT lThigh
	{
		OFFSET 5.308129 -1.633274 1.361059 
		CHANNELS 3 Xrotation Zrotation Yrotation
		JOINT lShin
		{
			OFFSET -2.041588 -20.007561 0.000000 
			CHANNELS 3 Xrotation Zrotation Yrotation
			JOINT lFoot
			{
				OFFSET 0.000000 -19.190928 -1.224953 
				CHANNELS 3 Xrotation Yrotation Zrotation
				End Site
				{
					OFFSET 0.000000 -2.449906 4.627600 
				}
			}
		}
	}
	JOINT rThigh
	{
		OFFSET -5.308129 -1.633274 1.361059 
		CHANNELS 3 Xrotation Zrotation Yrotation
		JOINT rShin
		{
			OFFSET 2.041588 -20.007561 0.000000 
			CHANNELS 3 Xrotation Zrotation Yrotation
			JOINT rFoot
			{
				OFFSET 0.000000 -19.190928 -1.224953 
				CHANNELS 3 Xrotation Yrotation Zrotation
				End Site
				{
					OFFSET 0.000000 -2.449906 4.627600 
				}
			}
		}
	}
}
MOTION
Frames: 17
Frame Time: 0.016667
1.265393 57.705074 0.394331 3.733304 -2.231587 2.813139 21.038857 -3.135892 -0.815124 -12.978765 -0.352098 0.608492 0.000000 0.000000 0.000000 11.822395 16.181889 -6.728768 1.993417 -2.013218 -0.007815 -84.055260 -4.905524 9.311538 3.735736 -5.317983 123.187965 3.604895 -0.195132 2.460925 -2.003164 1.994041 -0.018257 91.916862 6.627254 12.517425 0.848874 2.907753 123.042976 -14.697643 -2.935785 2.865072 -12.527228 9.393331 -6.966500 28.222319 -3.526460 -2.064425 -2.988277 -0.004673 -0.001913 -0.507114 -3.669205 5.707177 9.682776 3.950860 0.777584 -0.496714 0.027028 0.031306 
1.255072 57.681870 0.408714 3.704392 -2.387585 2.755347 20.960632 -3.137533 -0.742490 -13.057046 -0.447118 0.650565 0.000000 0.000000 0.000000 11.861621 16.323540 -6.767091 1.993417 -2.013218 -0.007815 -84.021652 -4.567846 9.335925 3.746475 -5.310974 123.295532 3.604895 -0.195132 2.460925 -2.003164 1.994041 -0.018257 91.988655 6.331471 12.519382 0.850865 2.916922 122.895760 -14.697643 -2.935785 2.865072 -12.474420 9.654591 -6.440285 28.340736 -3.526567 -2.063838 -3.017564 0.008616 0.003529 -0.399030 -3.478713 5.791214 9.456523 3.960060 0.781322 -0.487758 0.017722 0.017267 
1.236631 57.683624 0.391745 3.685030 -2.455856 2.761529 20.951046 -3.146858 -0.706380 -13.125423 -0.466014 0.665298 0.000000 0.000000 0.000000 11.546632 16.677156 -6.838166 1.993417 -2.013218 -0.007815 -84.066299 -4.616414 9.307501 3.758731 -5.310805 123.472237 3.604895 -0.195132 2.460925 -2.003164 1.994041 -0.018257 92.019218 6.283329 12.537714 0.855049 2.907995 122.846947 -14.697643 -2.935785 2.865072 -12.465417 9.762397 -6.445631 28.310036 -3.546012 -2.036464 -2.978462 -0.023581 0.011448 -0.399886 -3.374686 6.042652 9.477188 3.960575 0.792529 -0.497818 0.010603 0.014535 
1.225209 57.696167 0.391745 3.664773 -2.183031 2.799394 21.029270 -3.145213 -0.769262 -13.007989 -0.294966 0.644312 0.000000 0.000000 0.000000 11.534500 16.812258 -6.775707 1.993417 -2.013218 -0.007815 -84.217842 -4.765534 8.966065 3.777306 -5.318100 123.659554 3.604895 -0.195132 2.460925 -2.003164 1.994041 -0.018257 92.047897 6.472755 12.591660 0.850435 2.918528 123.110664 -14.697643 -2.935785 2.865072 -12.437585 9.431377 -6.761944 28.251093 -3.536049 -2.059045 -2.978392 -0.028906 -0.001279 -0.399322 -3.656491 6.007473 9.561065 3.963088 0.789333 -0.507013 0.026632 0.010233 
1.217824 57.683216 0.381426 3.655048 -2.202546 2.769222 20.950092 -3.101258 -0.767067 -13.115378 -0.266305 0.638217 0.000000 0.000000 0.000000 11.465216 16.681715 -6.831291 1.993417 -2.013218 -0.007815 -84.284279 -4.523277 9.051320 3.758295 -5.318950 123.521988 3.604895 -0.195132 2.460925 -2.003164 1.994041 -0.018257 92.023193 6.413860 12.659560 0.848619 2.929011 123.267365 -14.697643 -2.935785 2.865072 -12.389806 9.510054 -6.245165 28.251858 -3.526306 -2.066514 -2.988225 -0.020561 0.002134 -0.408862 -3.624256 5.949855 9.604076 3.960543 0.801772 -0.497602 0.016241 0.016700 
1.209345 57.677418 0.384377 3.645018 -2.095366 2.815499 20.928490 -3.001328 -0.825334 -13.164068 -0.047545 0.606823 0.000000 0.000000 0.000000 11.378245 16.763391 -6.724564 1.993417 -2.013218 -0.007815 -84.501595 -4.370853 8.892545 3.768963 -5.311899 123.629562 3.604895 -0.195132 2.460925 -2.003164 1.994041 -0.018257 91.812866 6.343818 13.168397 0.849096 2.907897 123.052742 -14.697643 -2.935785 2.865072 -12.365801 9.390233 -6.308308 28.260441 -3.531347 -2.087809 -2.978485 -0.012662 -0.005181 -0.399904 -3.737491 5.875119 9.656787 3.962212 0.785963 -0.506302 0.036585 0.014057 
1.191282 57.674854 0.363735 3.645227 -2.183079 2.780607 20.957273 -2.973382 -0.748039 -13.095703 0.000000 0.634766 0.000000 0.000000 0.000000 11.455224 17.018417 -6.681183 1.993417 -2.013218 -0.007815 -84.580711 -4.489872 9.404071 3.749916 -5.306815 123.383430 3.604895 -0.195132 2.460925 -2.003164 1.994041 -0.018257 91.742012 6.309720 13.384009 0.845976 2.927283 123.150208 -14.697643 -2.935785 2.865072 -12.371573 9.510825 -6.303759 28.262093 -3.516785 -2.085052 -2.988275 -0.005667 -0.002320 -0.448279 -3.609177 6.027619 9.689550 3.959479 0.788601 -0.496211 0.039936 0.015341 
1.166948 57.669598 0.339032 3.625452 -2.085665 2.807065 21.096380 -3.079992 -0.738669 -12.910173 -0.095188 0.676116 0.000000 0.000000 0.000000 11.707618 16.802402 -6.708173 1.993417 -2.013218 -0.007815 -84.438148 -4.715383 9.818343 3.743980 -5.314498 123.217323 3.604895 -0.195132 2.460925 -2.003164 1.994041 -0.018257 91.935333 6.582822 13.480120 0.850879 2.918818 123.130196 -14.697643 -2.935785 2.865072 -12.427957 9.441161 -6.330455 28.279501 -3.545829 -2.063429 -2.978508 0.002845 0.011713 -0.389594 -3.664454 6.351571 9.635654 3.961525 0.794234 -0.517154 0.016113 0.016655 
1.158838 57.674313 0.319855 3.645018 -2.095366 2.854561 21.174036 -3.051051 -0.781123 -12.773456 -0.095239 0.636826 0.000000 0.000000 0.000000 11.349438 16.793814 -6.698194 1.993417 -2.013218 -0.007815 -84.478378 -4.802691 9.770490 3.730605 -5.315282 123.030930 3.604895 -0.195132 2.460925 -2.003164 1.994041 -0.018257 92.002274 6.833328 13.694017 0.848179 2.928723 123.247826 -14.697643 -2.935785 2.865072 -12.518849 9.462460 -6.302361 28.349131 -3.536263 -2.075902 -2.988256 -0.011393 -0.004663 -0.321583 -3.674146 6.403106 9.444041 3.963216 0.800299 -0.507612 0.013340 0.005126 
1.171003 57.676338 0.315061 3.528359 -2.349059 2.960389 21.202248 -2.995819 -0.829871 -12.744281 -0.266701 0.597429 0.000000 0.000000 0.000000 10.985135 16.679083 -6.771831 1.993417 -2.013218 -0.007815 -84.419624 -4.757917 10.201083 3.694944 -5.324072 122.519989 3.604895 -0.195132 2.460925 -2.003164 1.994041 -0.018257 91.955917 6.851169 14.373221 0.851082 2.907302 122.905678 -14.697643 -2.935785 2.865072 -12.532672 9.751973 -6.318335 28.487770 -3.531541 -2.075628 -2.988278 -0.001135 -0.011013 -0.038660 -3.403007 5.998454 9.120009 3.952603 0.756001 -0.488200 0.001379 0.021452 
1.176534 57.674313 0.315428 3.469692 -2.339458 3.090336 21.231026 -2.967917 -0.869631 -12.695474 -0.285806 0.572197 0.000000 0.000000 0.000000 10.368792 16.422087 -6.940533 1.993417 -2.013218 -0.007815 -84.587341 -4.642308 9.532932 3.763578 -5.311457 123.413689 3.604895 -0.195132 2.460925 -2.003164 1.994041 -0.018257 91.944489 6.947381 14.927612 0.857183 2.907512 122.710144 -14.697643 -2.935785 2.865072 -12.543006 9.713278 -6.463598 28.557524 -3.511416 -2.114741 -2.978471 0.015253 0.006241 0.127204 -3.455904 5.766804 9.031133 3.961748 0.740411 -0.497125 0.024840 0.020003 
1.179109 57.646393 0.309158 3.352407 -2.339744 3.163479 21.368269 -2.983347 -0.913113 -12.519773 -0.352736 0.556841 0.000000 0.000000 0.000000 9.411102 16.844006 -7.044358 1.993417 -2.013218 -0.007815 -84.536591 -4.731668 10.024310 3.747394 -5.323946 123.197937 3.604895 -0.195132 2.460925 -2.003164 1.994041 -0.018257 92.096054 7.089883 14.902144 0.843904 2.927842 123.296783 -14.697643 -2.935785 2.865072 -12.360895 9.744595 -5.873782 28.547909 -3.506316 -2.122556 -3.007801 -0.003952 -0.012168 0.185629 -3.464213 5.503395 9.201777 3.959703 0.772556 -0.507757 0.007010 0.002693 
1.169159 57.635735 0.301785 3.225172 -2.262040 3.221892 21.398157 -3.010028 -0.935081 -12.549033 -0.324099 0.540891 0.000000 0.000000 0.000000 9.307161 17.012960 -7.037182 1.993417 -2.013218 -0.007815 -84.554680 -4.754677 10.416782 3.727966 -5.309065 122.951195 3.604895 -0.195132 2.460925 -2.003164 1.994041 -0.018257 92.119965 7.070277 15.492916 0.853097 2.920266 123.227814 -14.697643 -2.935785 2.865072 -12.176048 9.686399 -5.819835 28.487772 -3.531539 -2.075626 -3.007793 -0.010095 -0.004134 0.215224 -3.523377 5.383116 9.445812 3.959653 0.790328 -0.488214 0.004107 0.012039 
1.170637 57.631287 0.305842 3.117060 -1.959989 3.271921 21.527758 -3.125507 -0.949212 -12.373225 -0.305242 0.555242 0.000000 0.000000 0.000000 8.912571 16.885653 -7.019856 1.993417 -2.013218 -0.007815 -84.491547 -4.760524 11.259296 3.711781 -5.313349 122.686630 3.604895 -0.195132 2.460925 -2.003164 1.994041 -0.018257 92.124817 7.188207 16.156313 0.849962 2.906579 122.856865 -14.697643 -2.935785 2.865072 -11.991030 9.354716 -5.831871 28.427860 -3.536235 -2.082174 -3.027339 -0.005191 -0.002127 0.293080 -3.845469 5.346940 9.604332 3.960641 0.792033 -0.497612 0.019446 0.007470 
1.160678 57.631012 0.296633 3.107343 -1.989261 3.309726 21.653122 -3.041081 -0.962799 -12.177851 -0.248193 0.551607 0.000000 0.000000 0.000000 8.307498 17.288689 -7.113940 1.993417 -2.013218 -0.007815 -84.644325 -4.878732 11.065508 3.743548 -5.312887 123.266449 3.604895 -0.195132 2.460925 -2.003164 1.994041 -0.018257 91.993393 7.433210 16.875624 0.856955 2.907366 122.700371 -14.697643 -2.935785 2.865072 -12.014336 9.438858 -5.748522 28.380861 -3.501446 -2.119120 -2.978500 -0.009149 -0.003744 0.283207 -3.797674 5.349481 9.580692 3.963169 0.839495 -0.497418 0.023390 0.008985 
1.144832 57.625748 0.304736 2.990267 -2.087001 3.347753 21.778894 -2.974921 -1.002788 -11.982536 -0.248374 0.531229 0.000000 0.000000 0.000000 7.547843 17.483566 -7.270864 1.993417 -2.013218 -0.007815 -84.512764 -4.957467 12.037800 3.683915 -5.311493 122.411186 3.604895 -0.195132 2.460925 -2.003164 1.994041 -0.018257 92.045624 7.532150 17.441080 0.851082 2.907302 122.905678 -14.697643 -2.935785 2.865072 -11.926188 9.575315 -5.606896 28.487247 -3.536195 -2.076711 -2.988280 0.002424 0.000992 0.507676 -3.679191 5.485005 9.402148 3.962761 0.786991 -0.497587 0.019997 0.007681 
1.126024 57.604305 0.288145 2.717020 -2.292345 3.426095 22.080280 -2.887159 -1.014769 -11.640763 -0.277378 0.516127 0.000000 0.000000 0.000000 7.396936 17.799620 -7.286278 1.993417 -2.013218 -0.007815 -84.568275 -5.305114 11.847645 3.719439 -5.316399 122.813919 3.604895 -0.195132 2.460925 -2.003164 1.994041 -0.018257 92.031425 7.801943 17.897093 0.846409 2.917806 123.169884 -14.697643 -2.935785 2.865072 -11.760891 9.878313 -5.569679 28.555874 -3.535372 -2.091194 -2.988281 0.001748 0.000715 0.839181 -3.412370 5.506971 9.253839 3.960150 0.805393 -0.487208 0.030246 0.011615 
